<?xml version="1.0" encoding="UTF-8" standalone="no"?>
<svg
   height="2473.1846"
   version="1.1"
   width="2473.1846"
   id="svg38"
   sodipodi:docname="icon-2294x2294.svg"
   inkscape:export-filename="icon-512x512_nova.png"
   inkscape:export-xdpi="19.873972"
   inkscape:export-ydpi="19.873972"
   xml:space="preserve"
   inkscape:version="1.2.2 (732a01da63, 2022-12-09)"
   xmlns:inkscape="http://www.inkscape.org/namespaces/inkscape"
   xmlns:sodipodi="http://sodipodi.sourceforge.net/DTD/sodipodi-0.dtd"
   xmlns="http://www.w3.org/2000/svg"
   xmlns:svg="http://www.w3.org/2000/svg"><sodipodi:namedview
     id="namedview40"
     pagecolor="#ffffff"
     bordercolor="#666666"
     borderopacity="1.0"
     inkscape:showpageshadow="2"
     inkscape:pageopacity="0.0"
     inkscape:pagecheckerboard="0"
     inkscape:deskcolor="#d1d1d1"
     showgrid="false"
     inkscape:zoom="0.1767767"
     inkscape:cx="1434.0125"
     inkscape:cy="1343.5028"
     inkscape:window-width="1920"
     inkscape:window-height="1002"
     inkscape:window-x="-8"
     inkscape:window-y="-8"
     inkscape:window-maximized="1"
     inkscape:current-layer="svg38" /><defs
     id="defs2" /><g
     id="g2544"
     transform="matrix(15.902678,0,0,15.902678,-290.06484,-290.06484)"
     style="fill:#ffffff;fill-opacity:1;stroke:none"><path
       style="fill:#ffffff;fill-opacity:1;stroke:none;stroke-width:0.223626"
       d="m 131.10946,172.42172 c -0.70728,-0.39021 -1.68908,-1.36318 -2.0258,-2.00756 -0.16978,-0.3249 -0.50634,-2.07425 -0.74791,-3.88745 -0.24158,-1.81321 -0.52138,-3.36573 -0.62177,-3.45005 -0.10039,-0.0843 -0.88695,-0.4242 -1.74791,-0.7553 -0.86096,-0.3311 -1.70655,-0.69177 -1.87908,-0.8015 -0.22715,-0.14447 -0.96745,0.3408 -2.68351,1.75905 -1.30339,1.0772 -2.70808,2.1325 -3.12153,2.3451 -0.95971,0.49354 -2.45327,0.49423 -3.49136,0.002 -0.91776,-0.43551 -6.79318,-6.49117 -7.20764,-7.42874 -0.68214,-1.54313 -0.33285,-2.43075 2.37955,-6.04695 l 2.06561,-2.7539 -0.54565,-1.15956 c -0.30011,-0.63775 -0.66723,-1.53211 -0.81583,-1.98746 -0.31477,-0.96455 -0.22925,-0.9294 -3.70875,-1.52426 -3.5388,-0.60501 -3.96813,-0.76101 -4.88388,-1.77464 -1.10071,-1.21835 -1.33252,-2.50499 -1.23183,-6.83726 0.13587,-5.84691 0.69347,-6.4864 6.36755,-7.30276 l 3.32618,-0.47857 0.48015,-1.36133 c 0.26408,-0.74873 0.60775,-1.67395 0.76371,-2.05605 0.27777,-0.68055 0.24372,-0.74801 -1.66968,-3.30823 -1.07427,-1.43743 -2.0972,-2.9581 -2.27318,-3.37927 -0.40562,-0.97079 -0.40807,-2.14896 -0.007,-3.11014 0.4482,-1.07269 5.99817,-6.71475 7.15697,-7.27572 1.72943,-0.83719 2.12641,-0.68233 6.12823,2.39062 l 2.75283,2.11387 2.05167,-0.88206 2.05168,-0.88206 0.38918,-2.43749 c 0.68051,-4.2621 0.82722,-4.76165 1.67349,-5.69837 0.45149,-0.49975 1.12965,-0.96345 1.60017,-1.09413 1.07431,-0.29841 7.73593,-0.29254 8.8173,0.008 1.24652,0.34616 2.33882,1.41141 2.70213,2.6352 0.17,0.57264 0.48737,2.31693 0.70525,3.87617 0.38161,2.7309 0.41756,2.84035 0.97916,2.98046 0.32066,0.08 1.26912,0.44617 2.10769,0.81368 1.28741,0.56423 1.58322,0.62297 1.90083,0.37745 0.20687,-0.15991 1.2315,-0.99787 2.27695,-1.86211 2.43806,-2.0155 2.9087,-2.30837 3.98658,-2.48073 1.60344,-0.25639 2.38453,0.20464 5.49174,3.24152 3.74719,3.66244 4.16283,4.232 4.16283,5.70447 0,1.43746 -0.27704,1.9406 -2.8403,5.15836 l -2.0576,2.58299 0.78884,1.61758 c 0.43387,0.88967 0.86658,1.76691 0.96158,1.94943 0.11644,0.22369 1.29508,0.53596 3.61684,0.95823 3.77363,0.68634 4.52942,1.05533 5.38478,2.62898 0.38275,0.70417 0.41643,1.22109 0.35898,5.50899 l -0.0635,4.73188 -0.68678,0.85875 c -0.98464,1.23119 -1.70609,1.51629 -5.289,2.09011 l -3.19288,0.51135 -0.91249,2.06031 -0.91248,2.06033 2.19133,2.9445 c 3.60585,4.84521 3.57315,5.16586 -1.00235,9.82874 -3.54577,3.61348 -4.45559,4.20381 -6.099,3.95736 -0.99686,-0.14949 -1.23568,-0.30344 -4.92801,-3.17674 l -1.82346,-1.41898 -1.64272,0.64246 c -0.90352,0.35335 -1.7973,0.69496 -1.98621,0.75913 -0.2336,0.0793 -0.43401,0.67913 -0.62653,1.87513 -0.83889,5.21164 -0.96332,5.69342 -1.68168,6.51157 -1.13205,1.28934 -1.63402,1.39743 -6.45387,1.38983 -2.71205,-0.004 -4.47794,-0.0984 -4.75923,-0.25356 z m 7.02156,-7.84607 c 0.47095,-3.6928 0.87619,-5.36864 1.42776,-5.90451 0.27264,-0.26488 1.39776,-0.75267 2.50026,-1.084 1.10251,-0.33133 2.88671,-1.04546 3.96489,-1.58695 1.07819,-0.5415 2.24775,-0.98454 2.59904,-0.98454 0.44937,0 1.51875,0.62975 3.60747,2.12444 1.63281,1.16844 3.08673,2.12445 3.23094,2.12445 0.1442,0 0.79323,-0.53772 1.44227,-1.19493 l 1.18009,-1.19493 -2.2623,-3.04347 c -1.46786,-1.97469 -2.30577,-3.31126 -2.38606,-3.80608 -0.10157,-0.62592 0.082,-1.14439 1.02424,-2.89216 0.6314,-1.17125 1.44654,-3.01274 1.81142,-4.0922 0.36489,-1.07947 0.81581,-2.19524 1.00206,-2.47949 0.41271,-0.62988 1.79397,-1.04542 5.14396,-1.54752 1.35293,-0.20277 2.58566,-0.40551 2.73941,-0.45052 0.19164,-0.0561 0.27953,-0.61143 0.27953,-1.76606 0,-0.92632 -0.0337,-1.68421 -0.075,-1.68421 -0.67265,0 -6.99356,-1.40066 -7.49793,-1.66149 -0.73102,-0.37803 -1.1321,-1.00218 -1.59082,-2.47559 -0.15316,-0.49197 -0.87766,-2.17069 -1.61,-3.73048 -1.21349,-2.58459 -1.31213,-2.90619 -1.11281,-3.62807 0.12029,-0.43566 1.18355,-2.04634 2.3628,-3.57929 1.17923,-1.53296 2.14109,-2.86896 2.13746,-2.96889 -0.004,-0.0999 -0.55574,-0.77042 -1.22689,-1.48997 l -1.22027,-1.30827 -3.03859,2.25868 c -3.64751,2.71132 -3.92413,2.77042 -6.44743,1.37753 -0.87795,-0.48464 -2.55077,-1.20004 -3.71736,-1.58977 -2.58373,-0.86318 -2.82287,-0.98532 -3.15914,-1.61365 -0.1461,-0.27298 -0.47545,-2.10719 -0.73191,-4.07604 l -0.4663,-3.57973 -1.80515,-0.0643 -1.80516,-0.0643 -0.28234,2.18876 c -0.5183,4.01799 -0.84887,5.25596 -1.58257,5.92673 -0.36532,0.33399 -1.23574,0.77339 -1.93426,0.97645 -1.36491,0.39679 -3.16171,1.20594 -4.77811,2.15174 -0.95845,0.56081 -1.53677,0.70545 -2.59908,0.65004 -0.26105,-0.0137 -1.87116,-1.03682 -3.57801,-2.27378 l -3.10338,-2.24904 -1.26912,1.36688 -1.26911,1.36688 2.20089,3.00267 c 1.21049,1.65148 2.26897,3.31259 2.35217,3.69138 0.12185,0.55483 -0.0644,1.13162 -0.95851,2.96697 -0.61038,1.25304 -1.3318,2.98267 -1.60318,3.84364 -0.79923,2.53563 -0.91305,2.74738 -1.66987,3.10651 -0.39704,0.18841 -2.07335,0.54795 -3.7251,0.79898 -4.46244,0.67818 -4.00951,0.41365 -4.00951,2.34177 v 1.65439 l 1.06222,0.22366 c 0.58422,0.123 2.20618,0.44972 3.60436,0.72601 3.27312,0.64682 3.61133,0.91516 4.39612,3.4881 0.32175,1.05488 1.08101,2.87182 1.68724,4.03764 1.5547,2.98982 1.53012,3.22612 -0.63666,6.12168 -0.95637,1.27804 -1.97577,2.65951 -2.26532,3.06994 l -0.52645,0.74623 1.19546,1.21048 c 0.65751,0.66579 1.28535,1.2105 1.39521,1.2105 0.10984,0 1.09062,-0.6539 2.17948,-1.4531 4.20669,-3.08762 4.96492,-3.33207 6.91999,-2.23096 1.51516,0.85335 2.8135,1.412 4.70349,2.02383 2.62204,0.8488 2.79661,1.15268 3.45893,6.02093 0.2008,1.47594 0.40477,2.8093 0.45328,2.96304 0.0607,0.19231 0.63438,0.27954 1.83855,0.27954 h 1.75035 z m -3.77899,-14.27562 c -4.16212,-0.46417 -8.11334,-3.38681 -10.04255,-7.42832 -1.02472,-2.14669 -1.3636,-3.5962 -1.35906,-5.81303 0.01,-4.85809 2.84616,-9.6424 7.02543,-11.85106 2.02981,-1.07272 2.91992,-1.31721 5.23816,-1.43881 4.0968,-0.2149 6.97583,0.84628 9.75027,3.5938 2.96115,2.93245 4.31494,6.38927 4.0854,10.43186 -0.20107,3.54144 -1.41465,6.22632 -3.94396,8.72552 -1.74762,1.72681 -2.95591,2.47349 -5.1876,3.2058 -1.93014,0.63334 -3.54354,0.7998 -5.56609,0.57424 z m 4.03528,-6.44889 c 1.7329,-0.65846 2.98792,-1.81652 3.83639,-3.54003 3.13311,-6.36424 -3.87798,-13.16238 -9.7404,-9.44454 -1.25274,0.79447 -2.72901,2.63746 -3.09909,3.86896 -0.49233,1.63828 -0.34715,3.93565 0.33709,5.33418 0.93874,1.91873 2.65029,3.39818 4.63073,4.00279 1.03649,0.31643 2.88711,0.21491 4.03528,-0.22136 z m -107.525441,7.2624 c -4.553538,-1.10257 -8.480937,-5.02759 -9.544241,-9.53849 -1.073367,-4.55354 0.679924,-15.64321 3.69035,-23.34173 1.052162,-2.69069 3.360645,-7.26288 4.814404,-9.53544 2.032847,-3.17782 4.376361,-5.97914 7.76289,-9.279407 6.29207,-6.131789 11.070276,-8.905011 21.355566,-12.394555 21.883621,-5.847834 47.041102,-4.451525 64.199142,8.241935 2.63279,1.97858 3.16227,2.55267 3.15662,3.42254 -0.0125,1.925277 -1.73788,3.807887 -3.533,3.854957 -0.7241,0.019 -1.16851,-0.20793 -2.85288,-1.45671 -2.94604,-2.184167 -4.5986,-3.199187 -7.58581,-4.659317 -4.29249,-2.098136 -10.18649,-4.173351 -16.586328,-5.839859 -2.044269,-0.963894 -11.08911,-2.292161 -23.666299,-0.671241 l -2.683507,0.688583 c -1.475933,0.378722 -4.394244,1.250374 -6.485149,1.93701 -10.743253,3.527994 -15.467266,6.253247 -21.82709,12.591854 -3.909229,3.89621 -5.808364,6.55334 -8.458781,11.83492 -3.028596,6.03517 -5.155715,14.49462 -5.157896,20.51263 -7.99e-4,2.32431 0.04241,2.56678 0.68899,3.86067 0.682943,1.3667 1.371557,2.04798 2.888119,2.85742 0.751073,0.40087 2.092735,0.42227 33.208415,0.52956 30.67215,0.10577 32.465561,0.13357 33.162394,0.51401 2.272753,1.24086 2.130446,4.68039 -0.238135,5.7556 -0.919033,0.41719 -1.85345,0.42894 -33.036069,0.41523 -25.258907,-0.0111 -32.341786,-0.075 -33.271705,-0.30017 z"
       id="path2540"
       sodipodi:nodetypes="cssssssccsscsssscscssssccscccssccssssscscsscssssccsscccsssscsccsccccssssssscsscssssssssssccscssssscccsssscscccsccsssscccssssccsssssssccsscsscssssscssssssssssccscssccsscscssscsss" /><rect
       fill="#ffffff"
       height="155.52"
       rx="19.440001"
       ry="19.440001"
       width="155.52"
       x="18.24"
       y="18.24"
       id="rect2542"
       style="fill:#ffffff;fill-opacity:1;stroke:none;stroke-width:0.81;stroke-opacity:1" /></g><g
     id="g10087"
     transform="matrix(11.947917,0,0,11.947917,89.592185,89.592185)"><path
       style="fill:#000000;stroke-width:0.223626"
       d="m 131.10946,172.42172 c -0.70728,-0.39021 -1.68908,-1.36318 -2.0258,-2.00756 -0.16978,-0.3249 -0.50634,-2.07425 -0.74791,-3.88745 -0.24158,-1.81321 -0.52138,-3.36573 -0.62177,-3.45005 -0.10039,-0.0843 -0.88695,-0.4242 -1.74791,-0.7553 -0.86096,-0.3311 -1.70655,-0.69177 -1.87908,-0.8015 -0.22715,-0.14447 -0.96745,0.3408 -2.68351,1.75905 -1.30339,1.0772 -2.70808,2.1325 -3.12153,2.3451 -0.95971,0.49354 -2.45327,0.49423 -3.49136,0.002 -0.91776,-0.43551 -6.79318,-6.49117 -7.20764,-7.42874 -0.68214,-1.54313 -0.33285,-2.43075 2.37955,-6.04695 l 2.06561,-2.7539 -0.54565,-1.15956 c -0.30011,-0.63775 -0.66723,-1.53211 -0.81583,-1.98746 -0.31477,-0.96455 -0.22925,-0.9294 -3.70875,-1.52426 -3.5388,-0.60501 -3.96813,-0.76101 -4.88388,-1.77464 -1.10071,-1.21835 -1.33252,-2.50499 -1.23183,-6.83726 0.13587,-5.84691 0.69347,-6.4864 6.36755,-7.30276 l 3.32618,-0.47857 0.48015,-1.36133 c 0.26408,-0.74873 0.60775,-1.67395 0.76371,-2.05605 0.27777,-0.68055 0.24372,-0.74801 -1.66968,-3.30823 -1.07427,-1.43743 -2.0972,-2.9581 -2.27318,-3.37927 -0.40562,-0.97079 -0.40807,-2.14896 -0.007,-3.11014 0.4482,-1.07269 5.99817,-6.71475 7.15697,-7.27572 1.72943,-0.83719 2.12641,-0.68233 6.12823,2.39062 l 2.75283,2.11387 2.05167,-0.88206 2.05168,-0.88206 0.38918,-2.43749 c 0.68051,-4.2621 0.82722,-4.76165 1.67349,-5.69837 0.45149,-0.49975 1.12965,-0.96345 1.60017,-1.09413 1.07431,-0.29841 7.73593,-0.29254 8.8173,0.008 1.24652,0.34616 2.33882,1.41141 2.70213,2.6352 0.17,0.57264 0.48737,2.31693 0.70525,3.87617 0.38161,2.7309 0.41756,2.84035 0.97916,2.98046 0.32066,0.08 1.26912,0.44617 2.10769,0.81368 1.28741,0.56423 1.58322,0.62297 1.90083,0.37745 0.20687,-0.15991 1.2315,-0.99787 2.27695,-1.86211 2.43806,-2.0155 2.9087,-2.30837 3.98658,-2.48073 1.60344,-0.25639 2.38453,0.20464 5.49174,3.24152 3.74719,3.66244 4.16283,4.232 4.16283,5.70447 0,1.43746 -0.27704,1.9406 -2.8403,5.15836 l -2.0576,2.58299 0.78884,1.61758 c 0.43387,0.88967 0.86658,1.76691 0.96158,1.94943 0.11644,0.22369 1.29508,0.53596 3.61684,0.95823 3.77363,0.68634 4.52942,1.05533 5.38478,2.62898 0.38275,0.70417 0.41643,1.22109 0.35898,5.50899 l -0.0635,4.73188 -0.68678,0.85875 c -0.98464,1.23119 -1.70609,1.51629 -5.289,2.09011 l -3.19288,0.51135 -0.91249,2.06031 -0.91248,2.06033 2.19133,2.9445 c 3.60585,4.84521 3.57315,5.16586 -1.00235,9.82874 -3.54577,3.61348 -4.45559,4.20381 -6.099,3.95736 -0.99686,-0.14949 -1.23568,-0.30344 -4.92801,-3.17674 l -1.82346,-1.41898 -1.64272,0.64246 c -0.90352,0.35335 -1.7973,0.69496 -1.98621,0.75913 -0.2336,0.0793 -0.43401,0.67913 -0.62653,1.87513 -0.83889,5.21164 -0.96332,5.69342 -1.68168,6.51157 -1.13205,1.28934 -1.63402,1.39743 -6.45387,1.38983 -2.71205,-0.004 -4.47794,-0.0984 -4.75923,-0.25356 z m 7.02156,-7.84607 c 0.47095,-3.6928 0.87619,-5.36864 1.42776,-5.90451 0.27264,-0.26488 1.39776,-0.75267 2.50026,-1.084 1.10251,-0.33133 2.88671,-1.04546 3.96489,-1.58695 1.07819,-0.5415 2.24775,-0.98454 2.59904,-0.98454 0.44937,0 1.51875,0.62975 3.60747,2.12444 1.63281,1.16844 3.08673,2.12445 3.23094,2.12445 0.1442,0 0.79323,-0.53772 1.44227,-1.19493 l 1.18009,-1.19493 -2.2623,-3.04347 c -1.46786,-1.97469 -2.30577,-3.31126 -2.38606,-3.80608 -0.10157,-0.62592 0.082,-1.14439 1.02424,-2.89216 0.6314,-1.17125 1.44654,-3.01274 1.81142,-4.0922 0.36489,-1.07947 0.81581,-2.19524 1.00206,-2.47949 0.41271,-0.62988 1.79397,-1.04542 5.14396,-1.54752 1.35293,-0.20277 2.58566,-0.40551 2.73941,-0.45052 0.19164,-0.0561 0.27953,-0.61143 0.27953,-1.76606 0,-0.92632 -0.0337,-1.68421 -0.075,-1.68421 -0.67265,0 -6.99356,-1.40066 -7.49793,-1.66149 -0.73102,-0.37803 -1.1321,-1.00218 -1.59082,-2.47559 -0.15316,-0.49197 -0.87766,-2.17069 -1.61,-3.73048 -1.21349,-2.58459 -1.31213,-2.90619 -1.11281,-3.62807 0.12029,-0.43566 1.18355,-2.04634 2.3628,-3.57929 1.17923,-1.53296 2.14109,-2.86896 2.13746,-2.96889 -0.004,-0.0999 -0.55574,-0.77042 -1.22689,-1.48997 l -1.22027,-1.30827 -3.03859,2.25868 c -3.64751,2.71132 -3.92413,2.77042 -6.44743,1.37753 -0.87795,-0.48464 -2.55077,-1.20004 -3.71736,-1.58977 -2.58373,-0.86318 -2.82287,-0.98532 -3.15914,-1.61365 -0.1461,-0.27298 -0.47545,-2.10719 -0.73191,-4.07604 l -0.4663,-3.57973 -1.80515,-0.0643 -1.80516,-0.0643 -0.28234,2.18876 c -0.5183,4.01799 -0.84887,5.25596 -1.58257,5.92673 -0.36532,0.33399 -1.23574,0.77339 -1.93426,0.97645 -1.36491,0.39679 -3.16171,1.20594 -4.77811,2.15174 -0.95845,0.56081 -1.53677,0.70545 -2.59908,0.65004 -0.26105,-0.0137 -1.87116,-1.03682 -3.57801,-2.27378 l -3.10338,-2.24904 -1.26912,1.36688 -1.26911,1.36688 2.20089,3.00267 c 1.21049,1.65148 2.26897,3.31259 2.35217,3.69138 0.12185,0.55483 -0.0644,1.13162 -0.95851,2.96697 -0.61038,1.25304 -1.3318,2.98267 -1.60318,3.84364 -0.79923,2.53563 -0.91305,2.74738 -1.66987,3.10651 -0.39704,0.18841 -2.07335,0.54795 -3.7251,0.79898 -4.46244,0.67818 -4.00951,0.41365 -4.00951,2.34177 v 1.65439 l 1.06222,0.22366 c 0.58422,0.123 2.20618,0.44972 3.60436,0.72601 3.27312,0.64682 3.61133,0.91516 4.39612,3.4881 0.32175,1.05488 1.08101,2.87182 1.68724,4.03764 1.5547,2.98982 1.53012,3.22612 -0.63666,6.12168 -0.95637,1.27804 -1.97577,2.65951 -2.26532,3.06994 l -0.52645,0.74623 1.19546,1.21048 c 0.65751,0.66579 1.28535,1.2105 1.39521,1.2105 0.10984,0 1.09062,-0.6539 2.17948,-1.4531 4.20669,-3.08762 4.96492,-3.33207 6.91999,-2.23096 1.51516,0.85335 2.8135,1.412 4.70349,2.02383 2.62204,0.8488 2.79661,1.15268 3.45893,6.02093 0.2008,1.47594 0.40477,2.8093 0.45328,2.96304 0.0607,0.19231 0.63438,0.27954 1.83855,0.27954 h 1.75035 z m -3.77899,-14.27562 c -4.16212,-0.46417 -8.11334,-3.38681 -10.04255,-7.42832 -1.02472,-2.14669 -1.3636,-3.5962 -1.35906,-5.81303 0.01,-4.85809 2.84616,-9.6424 7.02543,-11.85106 2.02981,-1.07272 2.91992,-1.31721 5.23816,-1.43881 4.0968,-0.2149 6.97583,0.84628 9.75027,3.5938 2.96115,2.93245 4.31494,6.38927 4.0854,10.43186 -0.20107,3.54144 -1.41465,6.22632 -3.94396,8.72552 -1.74762,1.72681 -2.95591,2.47349 -5.1876,3.2058 -1.93014,0.63334 -3.54354,0.7998 -5.56609,0.57424 z m 4.03528,-6.44889 c 1.7329,-0.65846 2.98792,-1.81652 3.83639,-3.54003 3.13311,-6.36424 -3.87798,-13.16238 -9.7404,-9.44454 -1.25274,0.79447 -2.72901,2.63746 -3.09909,3.86896 -0.49233,1.63828 -0.34715,3.93565 0.33709,5.33418 0.93874,1.91873 2.65029,3.39818 4.63073,4.00279 1.03649,0.31643 2.88711,0.21491 4.03528,-0.22136 z m -107.525441,7.2624 c -4.553538,-1.10257 -8.480937,-5.02759 -9.544241,-9.53849 -1.073367,-4.55354 0.679924,-15.64321 3.69035,-23.34173 1.052162,-2.69069 3.360645,-7.26288 4.814404,-9.53544 2.032847,-3.17782 4.376361,-5.97914 7.76289,-9.279407 6.29207,-6.131789 11.070276,-8.905011 21.355566,-12.394555 21.883621,-5.847834 47.041102,-4.451525 64.199142,8.241935 2.63279,1.97858 3.16227,2.55267 3.15662,3.42254 -0.0125,1.925277 -1.73788,3.807887 -3.533,3.854957 -0.7241,0.019 -1.16851,-0.20793 -2.85288,-1.45671 -2.94604,-2.184167 -4.5986,-3.199187 -7.58581,-4.659317 -4.29249,-2.098136 -10.18649,-4.173351 -16.586328,-5.839859 -2.044269,-0.963894 -11.08911,-2.292161 -23.666299,-0.671241 l -2.683507,0.688583 c -1.475933,0.378722 -4.394244,1.250374 -6.485149,1.93701 -10.743253,3.527994 -15.467266,6.253247 -21.82709,12.591854 -3.909229,3.89621 -5.808364,6.55334 -8.458781,11.83492 -3.028596,6.03517 -5.155715,14.49462 -5.157896,20.51263 -7.99e-4,2.32431 0.04241,2.56678 0.68899,3.86067 0.682943,1.3667 1.371557,2.04798 2.888119,2.85742 0.751073,0.40087 2.092735,0.42227 33.208415,0.52956 30.67215,0.10577 32.465561,0.13357 33.162394,0.51401 2.272753,1.24086 2.130446,4.68039 -0.238135,5.7556 -0.919033,0.41719 -1.85345,0.42894 -33.036069,0.41523 -25.258907,-0.0111 -32.341786,-0.075 -33.271705,-0.30017 z"
       id="path10020"
       sodipodi:nodetypes="cssssssccsscsssscscssssccscccssccssssscscsscssssccsscccsssscsccsccccssssssscsscssssssssssccscssssscccsssscscccsccsssscccssssccsssssssccsscsscssssscssssssssssccscssccsscscssscsss" /><rect
       fill="#ffffff"
       height="155.52"
       rx="19.440001"
       ry="19.440001"
       width="155.52"
       x="18.24"
       y="18.24"
       id="rect10096"
       style="fill:none;stroke:#000000;stroke-width:0.81;stroke-opacity:1" /></g><path
     fill-rule="evenodd"
     d="m 1099.4795,400.37453 c -202.50004,0 -366.66673,164.16667 -366.66673,366.66667 0,202.49999 164.16669,366.6667 366.66673,366.6667 202.5,0 366.6666,-164.16671 366.6666,-366.6667 0,-202.5 -164.1666,-366.66667 -366.6666,-366.66667 z M 782.81277,767.0412 a 316.66666,316.66666 0 1 1 633.33333,0 316.66666,316.66666 0 0 1 -633.33333,0 z"
     id="path10067"
     style="fill:#000000;stroke-width:33.3333" /><g
     id="g10094"
     transform="translate(-126.48931,830.56516)"><path
       d="m 1107.8354,-25.726321 a 25,25 0 0 1 35.6,5.666666 102.66667,102.66667 0 0 0 19.0667,16.3999999 112.7,112.7 0 0 0 63.4667,18.8000001 c 28.5,0 49.5666,-9.4333335 63.4666,-18.7333334 a 102.7,102.7 0 0 0 19.0667,-16.3999996 l 0.7,-0.866667 a 25.010187,25.010187 0 0 1 39.9,30.1666665 l -0.9,1.1333335 c -0.4333,0.533333 -1,1.266666 -1.7333,2.1 -1.4667,1.666666 -3.5,3.966666 -6.1334,6.6 a 152.3,152.3 0 0 1 -23.1666,18.866666 162.66667,162.66667 0 0 1 -91.2,27.133333 162.66667,162.66667 0 0 1 -91.2,-27.133333 152.33333,152.33333 0 0 1 -23.1667,-18.866666 108.43333,108.43333 0 0 1 -7.8667,-8.7 c -8.6333,-11.06666675 -7.4333,-27.466667 4.1,-36.133333 z"
       id="path10065"
       style="fill:#000000;stroke-width:33.3333" /><path
       d="m 1125.9688,-150.52632 a 41.6667,41.6667 0 1 1 -83.3334,0 41.6667,41.6667 0 0 1 83.3334,0 z m 241.6666,41.66667 a 41.66667,41.66667 0 1 0 0,-83.33334 41.66667,41.66667 0 0 0 0,83.33334 z"
       id="path10069"
       style="fill:#000000;stroke-width:33.3333" /></g></svg>
